<?xml version="1.0" encoding="utf-8" standalone="no"?>
<!DOCTYPE svg PUBLIC "-//W3C//DTD SVG 1.1//EN"
  "http://www.w3.org/Graphics/SVG/1.1/DTD/svg11.dtd">
<svg xmlns:xlink="http://www.w3.org/1999/xlink" width="1087.2pt" height="1087.2pt" viewBox="0 0 1087.2 1087.2" xmlns="http://www.w3.org/2000/svg" version="1.1">
 <metadata>
  <rdf:RDF xmlns:dc="http://purl.org/dc/elements/1.1/" xmlns:cc="http://creativecommons.org/ns#" xmlns:rdf="http://www.w3.org/1999/02/22-rdf-syntax-ns#">
   <cc:Work>
    <dc:type rdf:resource="http://purl.org/dc/dcmitype/StillImage"/>
    <dc:date>2022-07-28T09:53:00.362592</dc:date>
    <dc:format>image/svg+xml</dc:format>
    <dc:creator>
     <cc:Agent>
      <dc:title>Matplotlib v3.5.1, https://matplotlib.org/</dc:title>
     </cc:Agent>
    </dc:creator>
   </cc:Work>
  </rdf:RDF>
 </metadata>
 <defs>
  <style type="text/css">*{stroke-linejoin: round; stroke-linecap: butt}</style>
 </defs>
 <g id="figure_1">
  <g id="axes_1">
   <g id="PathCollection_1">
    <defs>
     <path id="me62822a211" d="M 0 19.748418 
C 5.237342 19.748418 10.26088 17.6676 13.96424 13.96424 
C 17.6676 10.26088 19.748418 5.237342 19.748418 0 
C 19.748418 -5.237342 17.6676 -10.26088 13.96424 -13.96424 
C 10.26088 -17.6676 5.237342 -19.748418 0 -19.748418 
C -5.237342 -19.748418 -10.26088 -17.6676 -13.96424 -13.96424 
C -17.6676 -10.26088 -19.748418 -5.237342 -19.748418 0 
C -19.748418 5.237342 -17.6676 10.26088 -13.96424 13.96424 
C -10.26088 17.6676 -5.237342 19.748418 0 19.748418 
z
" style="stroke: #d62728; stroke-opacity: 0.4"/>
    </defs>
    <g clip-path="url(#p83aa36313f)">
     <use xlink:href="#me62822a211" x="575.735609" y="235.549465" style="fill: #d62728; fill-opacity: 0.4; stroke: #d62728; stroke-opacity: 0.4"/>
    </g>
   </g>
   <g id="PathCollection_2">
    <defs>
     <path id="m1d3c06c2a5" d="M 0 7.071068 
C 1.875269 7.071068 3.673985 6.326016 5 5 
C 6.326016 3.673985 7.071068 1.875269 7.071068 0 
C 7.071068 -1.875269 6.326016 -3.673985 5 -5 
C 3.673985 -6.326016 1.875269 -7.071068 0 -7.071068 
C -1.875269 -7.071068 -3.673985 -6.326016 -5 -5 
C -6.326016 -3.673985 -7.071068 -1.875269 -7.071068 0 
C -7.071068 1.875269 -6.326016 3.673985 -5 5 
C -3.673985 6.326016 -1.875269 7.071068 0 7.071068 
z
" style="stroke: #000000; stroke-opacity: 0.4"/>
    </defs>
    <g clip-path="url(#p83aa36313f)">
     <use xlink:href="#m1d3c06c2a5" x="572.594107" y="265.656056" style="fill-opacity: 0.4; stroke: #000000; stroke-opacity: 0.4"/>
    </g>
   </g>
   <g id="PathCollection_3">
    <defs>
     <path id="mfb544f91a3" d="M 0 8.944272 
C 2.372049 8.944272 4.647264 8.001847 6.324555 6.324555 
C 8.001847 4.647264 8.944272 2.372049 8.944272 0 
C 8.944272 -2.372049 8.001847 -4.647264 6.324555 -6.324555 
C 4.647264 -8.001847 2.372049 -8.944272 0 -8.944272 
C -2.372049 -8.944272 -4.647264 -8.001847 -6.324555 -6.324555 
C -8.001847 -4.647264 -8.944272 -2.372049 -8.944272 0 
C -8.944272 2.372049 -8.001847 4.647264 -6.324555 6.324555 
C -4.647264 8.001847 -2.372049 8.944272 0 8.944272 
z
" style="stroke: #d62728; stroke-opacity: 0.4"/>
    </defs>
    <g clip-path="url(#p83aa36313f)">
     <use xlink:href="#mfb544f91a3" x="626.201916" y="245.09407" style="fill: #d62728; fill-opacity: 0.4; stroke: #d62728; stroke-opacity: 0.4"/>
    </g>
   </g>
   <g id="PathCollection_4">
    <defs>
     <path id="ma593515a6d" d="M 0 13.038405 
C 3.457825 13.038405 6.774493 11.664596 9.219544 9.219544 
C 11.664596 6.774493 13.038405 3.457825 13.038405 0 
C 13.038405 -3.457825 11.664596 -6.774493 9.219544 -9.219544 
C 6.774493 -11.664596 3.457825 -13.038405 0 -13.038405 
C -3.457825 -13.038405 -6.774493 -11.664596 -9.219544 -9.219544 
C -11.664596 -6.774493 -13.038405 -3.457825 -13.038405 0 
C -13.038405 3.457825 -11.664596 6.774493 -9.219544 9.219544 
C -6.774493 11.664596 -3.457825 13.038405 0 13.038405 
z
" style="stroke: #000000; stroke-opacity: 0.4"/>
    </defs>
    <g clip-path="url(#p83aa36313f)">
     <use xlink:href="#ma593515a6d" x="618.130088" y="274.271484" style="fill-opacity: 0.4; stroke: #000000; stroke-opacity: 0.4"/>
    </g>
   </g>
   <g id="PathCollection_5">
    <defs>
     <path id="m9c05554529" d="M 0 26.832816 
C 7.116146 26.832816 13.941791 24.005541 18.973666 18.973666 
C 24.005541 13.941791 26.832816 7.116146 26.832816 0 
C 26.832816 -7.116146 24.005541 -13.941791 18.973666 -18.973666 
C 13.941791 -24.005541 7.116146 -26.832816 0 -26.832816 
C -7.116146 -26.832816 -13.941791 -24.005541 -18.973666 -18.973666 
C -24.005541 -13.941791 -26.832816 -7.116146 -26.832816 0 
C -26.832816 7.116146 -24.005541 13.941791 -18.973666 18.973666 
C -13.941791 24.005541 -7.116146 26.832816 0 26.832816 
z
" style="stroke: #d62728; stroke-opacity: 0.4"/>
    </defs>
    <g clip-path="url(#p83aa36313f)">
     <use xlink:href="#m9c05554529" x="690.972488" y="271.180549" style="fill: #d62728; fill-opacity: 0.4; stroke: #d62728; stroke-opacity: 0.4"/>
    </g>
   </g>
   <g id="PathCollection_6">
    <path d="M 676.567088 300.972906 
C 677.405734 300.972906 678.210144 300.639708 678.803156 300.046696 
C 679.396169 299.453684 679.729366 298.649274 679.729366 297.810628 
C 679.729366 296.971982 679.396169 296.167572 678.803156 295.57456 
C 678.210144 294.981548 677.405734 294.64835 676.567088 294.64835 
C 675.728443 294.64835 674.924033 294.981548 674.33102 295.57456 
C 673.738008 296.167572 673.404811 296.971982 673.404811 297.810628 
C 673.404811 298.649274 673.738008 299.453684 674.33102 300.046696 
C 674.924033 300.639708 675.728443 300.972906 676.567088 300.972906 
L 676.567088 300.972906 
z
" clip-path="url(#p83aa36313f)" style="fill: none; stroke: #000000; stroke-opacity: 0.4"/>
   </g>
   <g id="PathCollection_7">
    <defs>
     <path id="mf2a8519a36" d="M 0 14.142136 
C 3.750538 14.142136 7.347969 12.652031 10 10 
C 12.652031 7.347969 14.142136 3.750538 14.142136 0 
C 14.142136 -3.750538 12.652031 -7.347969 10 -10 
C 7.347969 -12.652031 3.750538 -14.142136 0 -14.142136 
C -3.750538 -14.142136 -7.347969 -12.652031 -10 -10 
C -12.652031 -7.347969 -14.142136 -3.750538 -14.142136 0 
C -14.142136 3.750538 -12.652031 7.347969 -10 10 
C -7.347969 12.652031 -3.750538 14.142136 0 14.142136 
z
" style="stroke: #d62728; stroke-opacity: 0.4"/>
    </defs>
    <g clip-path="url(#p83aa36313f)">
     <use xlink:href="#mf2a8519a36" x="724.979093" y="292.538972" style="fill: #d62728; fill-opacity: 0.4; stroke: #d62728; stroke-opacity: 0.4"/>
    </g>
   </g>
   <g id="PathCollection_8">
    <defs>
     <path id="m8f22813560" d="M 0 3.162278 
C 0.838646 3.162278 1.643056 2.82908 2.236068 2.236068 
C 2.82908 1.643056 3.162278 0.838646 3.162278 0 
C 3.162278 -0.838646 2.82908 -1.643056 2.236068 -2.236068 
C 1.643056 -2.82908 0.838646 -3.162278 0 -3.162278 
C -0.838646 -3.162278 -1.643056 -2.82908 -2.236068 -2.236068 
C -2.82908 -1.643056 -3.162278 -0.838646 -3.162278 0 
C -3.162278 0.838646 -2.82908 1.643056 -2.236068 2.236068 
C -1.643056 2.82908 -0.838646 3.162278 0 3.162278 
z
" style="stroke: #000000; stroke-opacity: 0.4"/>
    </defs>
    <g clip-path="url(#p83aa36313f)">
     <use xlink:href="#m8f22813560" x="707.248884" y="317.076823" style="fill-opacity: 0.4; stroke: #000000; stroke-opacity: 0.4"/>
    </g>
   </g>
   <g id="PathCollection_9">
    <path d="M 746.29327 312.571813 
C 747.131916 312.571813 747.936326 312.238615 748.529338 311.645603 
C 749.12235 311.052591 749.455547 310.248181 749.455547 309.409535 
C 749.455547 308.570889 749.12235 307.766479 748.529338 307.173467 
C 747.936326 306.580455 747.131916 306.247257 746.29327 306.247257 
C 745.454624 306.247257 744.650214 306.580455 744.057202 307.173467 
C 743.46419 307.766479 743.130992 308.570889 743.130992 309.409535 
C 743.130992 310.248181 743.46419 311.052591 744.057202 311.645603 
C 744.650214 312.238615 745.454624 312.571813 746.29327 312.571813 
L 746.29327 312.571813 
z
" clip-path="url(#p83aa36313f)" style="fill: none; stroke: #d62728; stroke-opacity: 0.4"/>
   </g>
   <g id="PathCollection_10">
    <path d="M 726.483474 335.459901 
C 727.32212 335.459901 728.12653 335.126703 728.719542 334.533691 
C 729.312555 333.940679 729.645752 333.136269 729.645752 332.297623 
C 729.645752 331.458977 729.312555 330.654567 728.719542 330.061555 
C 728.12653 329.468543 727.32212 329.135346 726.483474 329.135346 
C 725.644829 329.135346 724.840419 329.468543 724.247406 330.061555 
C 723.654394 330.654567 723.321197 331.458977 723.321197 332.297623 
C 723.321197 333.136269 723.654394 333.940679 724.247406 334.533691 
C 724.840419 335.126703 725.644829 335.459901 726.483474 335.459901 
L 726.483474 335.459901 
z
" clip-path="url(#p83aa36313f)" style="fill: none; stroke: #000000; stroke-opacity: 0.4"/>
   </g>
   <g id="PathCollection_11">
    <path d="M 767.455744 332.710296 
C 768.29439 332.710296 769.0988 332.377099 769.691812 331.784087 
C 770.284824 331.191074 770.618022 330.386664 770.618022 329.548019 
C 770.618022 328.709373 770.284824 327.904963 769.691812 327.311951 
C 769.0988 326.718938 768.29439 326.385741 767.455744 326.385741 
C 766.617098 326.385741 765.812688 326.718938 765.219676 327.311951 
C 764.626664 327.904963 764.293467 328.709373 764.293467 329.548019 
C 764.293467 330.386664 764.626664 331.191074 765.219676 331.784087 
C 765.812688 332.377099 766.617098 332.710296 767.455744 332.710296 
L 767.455744 332.710296 
z
" clip-path="url(#p83aa36313f)" style="fill: none; stroke: #d62728; stroke-opacity: 0.4"/>
   </g>
   <g id="PathCollection_12">
    <defs>
     <path id="m4945158fae" d="M 0 4.472136 
C 1.186024 4.472136 2.323632 4.000923 3.162278 3.162278 
C 4.000923 2.323632 4.472136 1.186024 4.472136 0 
C 4.472136 -1.186024 4.000923 -2.323632 3.162278 -3.162278 
C 2.323632 -4.000923 1.186024 -4.472136 0 -4.472136 
C -1.186024 -4.472136 -2.323632 -4.000923 -3.162278 -3.162278 
C -4.000923 -2.323632 -4.472136 -1.186024 -4.472136 0 
C -4.472136 1.186024 -4.000923 2.323632 -3.162278 3.162278 
C -2.323632 4.000923 -1.186024 4.472136 0 4.472136 
z
" style="stroke: #000000; stroke-opacity: 0.4"/>
    </defs>
    <g clip-path="url(#p83aa36313f)">
     <use xlink:href="#m4945158fae" x="745.579005" y="350.470298" style="fill-opacity: 0.4; stroke: #000000; stroke-opacity: 0.4"/>
    </g>
   </g>
   <g id="PathCollection_13">
    <path d="M 796.582591 368.075901 
C 797.421237 368.075901 798.225647 367.742703 798.818659 367.149691 
C 799.411671 366.556679 799.744868 365.752269 799.744868 364.913623 
C 799.744868 364.074977 799.411671 363.270567 798.818659 362.677555 
C 798.225647 362.084543 797.421237 361.751346 796.582591 361.751346 
C 795.743945 361.751346 794.939535 362.084543 794.346523 362.677555 
C 793.753511 363.270567 793.420313 364.074977 793.420313 364.913623 
C 793.420313 365.752269 793.753511 366.556679 794.346523 367.149691 
C 794.939535 367.742703 795.743945 368.075901 796.582591 368.075901 
L 796.582591 368.075901 
z
" clip-path="url(#p83aa36313f)" style="fill: none; stroke: #d62728; stroke-opacity: 0.4"/>
   </g>
   <g id="PathCollection_14">
    <path d="M 771.855112 385.540631 
C 772.693757 385.540631 773.498167 385.207434 774.09118 384.614421 
C 774.684192 384.021409 775.017389 383.216999 775.017389 382.378353 
C 775.017389 381.539708 774.684192 380.735298 774.09118 380.142286 
C 773.498167 379.549273 772.693757 379.216076 771.855112 379.216076 
C 771.016466 379.216076 770.212056 379.549273 769.619044 380.142286 
C 769.026031 380.735298 768.692834 381.539708 768.692834 382.378353 
C 768.692834 383.216999 769.026031 384.021409 769.619044 384.614421 
C 770.212056 385.207434 771.016466 385.540631 771.855112 385.540631 
L 771.855112 385.540631 
z
" clip-path="url(#p83aa36313f)" style="fill: none; stroke: #000000; stroke-opacity: 0.4"/>
   </g>
   <g id="PathCollection_15">
    <defs>
     <path id="m721a80064d" d="M 0 7.745967 
C 2.054254 7.745967 4.024648 6.929803 5.477226 5.477226 
C 6.929803 4.024648 7.745967 2.054254 7.745967 0 
C 7.745967 -2.054254 6.929803 -4.024648 5.477226 -5.477226 
C 4.024648 -6.929803 2.054254 -7.745967 0 -7.745967 
C -2.054254 -7.745967 -4.024648 -6.929803 -5.477226 -5.477226 
C -6.929803 -4.024648 -7.745967 -2.054254 -7.745967 0 
C -7.745967 2.054254 -6.929803 4.024648 -5.477226 5.477226 
C -4.024648 6.929803 -2.054254 7.745967 0 7.745967 
z
" style="stroke: #d62728; stroke-opacity: 0.4"/>
    </defs>
    <g clip-path="url(#p83aa36313f)">
     <use xlink:href="#m721a80064d" x="829.792758" y="425.183693" style="fill: #d62728; fill-opacity: 0.4; stroke: #d62728; stroke-opacity: 0.4"/>
    </g>
   </g>
   <g id="PathCollection_16">
    <defs>
     <path id="m2c759c9361" d="M 0 7.745967 
C 2.054254 7.745967 4.024648 6.929803 5.477226 5.477226 
C 6.929803 4.024648 7.745967 2.054254 7.745967 0 
C 7.745967 -2.054254 6.929803 -4.024648 5.477226 -5.477226 
C 4.024648 -6.929803 2.054254 -7.745967 0 -7.745967 
C -2.054254 -7.745967 -4.024648 -6.929803 -5.477226 -5.477226 
C -6.929803 -4.024648 -7.745967 -2.054254 -7.745967 0 
C -7.745967 2.054254 -6.929803 4.024648 -5.477226 5.477226 
C -4.024648 6.929803 -2.054254 7.745967 0 7.745967 
z
" style="stroke: #000000; stroke-opacity: 0.4"/>
    </defs>
    <g clip-path="url(#p83aa36313f)">
     <use xlink:href="#m2c759c9361" x="801.822642" y="436.757316" style="fill-opacity: 0.4; stroke: #000000; stroke-opacity: 0.4"/>
    </g>
   </g>
   <g id="PathCollection_17">
    <defs>
     <path id="mfc6ef660e7" d="M 0 23.2379 
C 6.162763 23.2379 12.073945 20.789408 16.431677 16.431677 
C 20.789408 12.073945 23.2379 6.162763 23.2379 0 
C 23.2379 -6.162763 20.789408 -12.073945 16.431677 -16.431677 
C 12.073945 -20.789408 6.162763 -23.2379 0 -23.2379 
C -6.162763 -23.2379 -12.073945 -20.789408 -16.431677 -16.431677 
C -20.789408 -12.073945 -23.2379 -6.162763 -23.2379 0 
C -23.2379 6.162763 -20.789408 12.073945 -16.431677 16.431677 
C -12.073945 20.789408 -6.162763 23.2379 0 23.2379 
z
" style="stroke: #d62728; stroke-opacity: 0.4"/>
    </defs>
    <g clip-path="url(#p83aa36313f)">
     <use xlink:href="#mfc6ef660e7" x="839.982098" y="453.665805" style="fill: #d62728; fill-opacity: 0.4; stroke: #d62728; stroke-opacity: 0.4"/>
    </g>
   </g>
   <g id="PathCollection_18">
    <g clip-path="url(#p83aa36313f)">
     <use xlink:href="#m4945158fae" x="811.013274" y="462.458219" style="fill-opacity: 0.4; stroke: #000000; stroke-opacity: 0.4"/>
    </g>
   </g>
   <g id="PathCollection_19">
    <defs>
     <path id="mb554b2aa32" d="M 0 15.811388 
C 4.193229 15.811388 8.215279 14.145401 11.18034 11.18034 
C 14.145401 8.215279 15.811388 4.193229 15.811388 0 
C 15.811388 -4.193229 14.145401 -8.215279 11.18034 -11.18034 
C 8.215279 -14.145401 4.193229 -15.811388 0 -15.811388 
C -4.193229 -15.811388 -8.215279 -14.145401 -11.18034 -11.18034 
C -14.145401 -8.215279 -15.811388 -4.193229 -15.811388 0 
C -15.811388 4.193229 -14.145401 8.215279 -11.18034 11.18034 
C -8.215279 14.145401 -4.193229 15.811388 0 15.811388 
z
" style="stroke: #d62728; stroke-opacity: 0.4"/>
    </defs>
    <g clip-path="url(#p83aa36313f)">
     <use xlink:href="#mb554b2aa32" x="848.844042" y="491.117316" style="fill: #d62728; fill-opacity: 0.4; stroke: #d62728; stroke-opacity: 0.4"/>
    </g>
   </g>
   <g id="PathCollection_20">
    <path d="M 819.009251 499.412189 
C 819.847897 499.412189 820.652307 499.078992 821.245319 498.48598 
C 821.838331 497.892967 822.171529 497.088557 822.171529 496.249912 
C 822.171529 495.411266 821.838331 494.606856 821.245319 494.013844 
C 820.652307 493.420831 819.847897 493.087634 819.009251 493.087634 
C 818.170605 493.087634 817.366195 493.420831 816.773183 494.013844 
C 816.180171 494.606856 815.846974 495.411266 815.846974 496.249912 
C 815.846974 497.088557 816.180171 497.892967 816.773183 498.48598 
C 817.366195 499.078992 818.170605 499.412189 819.009251 499.412189 
L 819.009251 499.412189 
z
" clip-path="url(#p83aa36313f)" style="fill: none; stroke: #000000; stroke-opacity: 0.4"/>
   </g>
   <g id="PathCollection_21">
    <defs>
     <path id="m6b4b3d0eae" d="M 0 10.954451 
C 2.905154 10.954451 5.691712 9.800221 7.745967 7.745967 
C 9.800221 5.691712 10.954451 2.905154 10.954451 0 
C 10.954451 -2.905154 9.800221 -5.691712 7.745967 -7.745967 
C 5.691712 -9.800221 2.905154 -10.954451 0 -10.954451 
C -2.905154 -10.954451 -5.691712 -9.800221 -7.745967 -7.745967 
C -9.800221 -5.691712 -10.954451 -2.905154 -10.954451 0 
C -10.954451 2.905154 -9.800221 5.691712 -7.745967 7.745967 
C -5.691712 9.800221 -2.905154 10.954451 0 10.954451 
z
" style="stroke: #d62728; stroke-opacity: 0.4"/>
    </defs>
    <g clip-path="url(#p83aa36313f)">
     <use xlink:href="#m6b4b3d0eae" x="853.275014" y="537.968051" style="fill: #d62728; fill-opacity: 0.4; stroke: #d62728; stroke-opacity: 0.4"/>
    </g>
   </g>
   <g id="PathCollection_22">
    <path d="M 823.004079 541.68025 
C 823.842725 541.68025 824.647135 541.347052 825.240147 540.75404 
C 825.833159 540.161028 826.166357 539.356618 826.166357 538.517972 
C 826.166357 537.679326 825.833159 536.874916 825.240147 536.281904 
C 824.647135 535.688892 823.842725 535.355694 823.004079 535.355694 
C 822.165433 535.355694 821.361023 535.688892 820.768011 536.281904 
C 820.174999 536.874916 819.841801 537.679326 819.841801 538.517972 
C 819.841801 539.356618 820.174999 540.161028 820.768011 540.75404 
C 821.361023 541.347052 822.165433 541.68025 823.004079 541.68025 
L 823.004079 541.68025 
z
" clip-path="url(#p83aa36313f)" style="fill: none; stroke: #000000; stroke-opacity: 0.4"/>
   </g>
   <g id="PathCollection_23">
    <defs>
     <path id="m1038aeddf2" d="M 0 19.493589 
C 5.16976 19.493589 10.128476 17.439621 13.784049 13.784049 
C 17.439621 10.128476 19.493589 5.16976 19.493589 0 
C 19.493589 -5.16976 17.439621 -10.128476 13.784049 -13.784049 
C 10.128476 -17.439621 5.16976 -19.493589 0 -19.493589 
C -5.16976 -19.493589 -10.128476 -17.439621 -13.784049 -13.784049 
C -17.439621 -10.128476 -19.493589 -5.16976 -19.493589 0 
C -19.493589 5.16976 -17.439621 10.128476 -13.784049 13.784049 
C -10.128476 17.439621 -5.16976 19.493589 0 19.493589 
z
" style="stroke: #d62728; stroke-opacity: 0.4"/>
    </defs>
    <g clip-path="url(#p83aa36313f)">
     <use xlink:href="#m1038aeddf2" x="834.147879" y="650.885149" style="fill: #d62728; fill-opacity: 0.4; stroke: #d62728; stroke-opacity: 0.4"/>
    </g>
   </g>
   <g id="PathCollection_24">
    <path d="M 805.74794 643.561003 
C 806.586585 643.561003 807.390995 643.227806 807.984008 642.634794 
C 808.57702 642.041781 808.910217 641.237371 808.910217 640.398726 
C 808.910217 639.56008 808.57702 638.75567 807.984008 638.162658 
C 807.390995 637.569645 806.586585 637.236448 805.74794 637.236448 
C 804.909294 637.236448 804.104884 637.569645 803.511872 638.162658 
C 802.918859 638.75567 802.585662 639.56008 802.585662 640.398726 
C 802.585662 641.237371 802.918859 642.041781 803.511872 642.634794 
C 804.104884 643.227806 804.909294 643.561003 805.74794 643.561003 
L 805.74794 643.561003 
z
" clip-path="url(#p83aa36313f)" style="fill: none; stroke: #000000; stroke-opacity: 0.4"/>
   </g>
   <g id="PathCollection_25">
    <defs>
     <path id="ma30cfc66ba" d="M 0 15.165751 
C 4.022004 15.165751 7.879819 13.567792 10.723805 10.723805 
C 13.567792 7.879819 15.165751 4.022004 15.165751 0 
C 15.165751 -4.022004 13.567792 -7.879819 10.723805 -10.723805 
C 7.879819 -13.567792 4.022004 -15.165751 0 -15.165751 
C -4.022004 -15.165751 -7.879819 -13.567792 -10.723805 -10.723805 
C -13.567792 -7.879819 -15.165751 -4.022004 -15.165751 0 
C -15.165751 4.022004 -13.567792 7.879819 -10.723805 10.723805 
C -7.879819 13.567792 -4.022004 15.165751 0 15.165751 
z
" style="stroke: #d62728; stroke-opacity: 0.4"/>
    </defs>
    <g clip-path="url(#p83aa36313f)">
     <use xlink:href="#ma30cfc66ba" x="780.514786" y="743.107521" style="fill: #d62728; fill-opacity: 0.4; stroke: #d62728; stroke-opacity: 0.4"/>
    </g>
   </g>
   <g id="PathCollection_26">
    <defs>
     <path id="m0541d33ad0" d="M 0 5.477226 
C 1.452577 5.477226 2.845856 4.900111 3.872983 3.872983 
C 4.900111 2.845856 5.477226 1.452577 5.477226 0 
C 5.477226 -1.452577 4.900111 -2.845856 3.872983 -3.872983 
C 2.845856 -4.900111 1.452577 -5.477226 0 -5.477226 
C -1.452577 -5.477226 -2.845856 -4.900111 -3.872983 -3.872983 
C -4.900111 -2.845856 -5.477226 -1.452577 -5.477226 0 
C -5.477226 1.452577 -4.900111 2.845856 -3.872983 3.872983 
C -2.845856 4.900111 -1.452577 5.477226 0 5.477226 
z
" style="stroke: #000000; stroke-opacity: 0.4"/>
    </defs>
    <g clip-path="url(#p83aa36313f)">
     <use xlink:href="#m0541d33ad0" x="757.354898" y="723.60113" style="fill-opacity: 0.4; stroke: #000000; stroke-opacity: 0.4"/>
    </g>
   </g>
   <g id="PathCollection_27">
    <g clip-path="url(#p83aa36313f)">
     <use xlink:href="#m721a80064d" x="759.33967" y="765.831265" style="fill: #d62728; fill-opacity: 0.4; stroke: #d62728; stroke-opacity: 0.4"/>
    </g>
   </g>
   <g id="PathCollection_28">
    <path d="M 738.253047 747.268506 
C 739.091692 747.268506 739.896102 746.935308 740.489114 746.342296 
C 741.082127 745.749284 741.415324 744.944874 741.415324 744.106228 
C 741.415324 743.267582 741.082127 742.463172 740.489114 741.87016 
C 739.896102 741.277148 739.091692 740.94395 738.253047 740.94395 
C 737.414401 740.94395 736.609991 741.277148 736.016979 741.87016 
C 735.423966 742.463172 735.090769 743.267582 735.090769 744.106228 
C 735.090769 744.944874 735.423966 745.749284 736.016979 746.342296 
C 736.609991 746.935308 737.414401 747.268506 738.253047 747.268506 
L 738.253047 747.268506 
z
" clip-path="url(#p83aa36313f)" style="fill: none; stroke: #000000; stroke-opacity: 0.4"/>
   </g>
   <g id="PathCollection_29">
    <path d="M 754.403023 773.683673 
C 755.241669 773.683673 756.046079 773.350475 756.639091 772.757463 
C 757.232103 772.164451 757.565301 771.360041 757.565301 770.521395 
C 757.565301 769.68275 757.232103 768.87834 756.639091 768.285327 
C 756.046079 767.692315 755.241669 767.359118 754.403023 767.359118 
C 753.564377 767.359118 752.759967 767.692315 752.166955 768.285327 
C 751.573943 768.87834 751.240746 769.68275 751.240746 770.521395 
C 751.240746 771.360041 751.573943 772.164451 752.166955 772.757463 
C 752.759967 773.350475 753.564377 773.683673 754.403023 773.683673 
L 754.403023 773.683673 
z
" clip-path="url(#p83aa36313f)" style="fill: none; stroke: #d62728; stroke-opacity: 0.4"/>
   </g>
   <g id="PathCollection_30">
    <path d="M 733.796791 751.503529 
C 734.635437 751.503529 735.439847 751.170331 736.032859 750.577319 
C 736.625871 749.984307 736.959068 749.179897 736.959068 748.341251 
C 736.959068 747.502605 736.625871 746.698195 736.032859 746.105183 
C 735.439847 745.512171 734.635437 745.178974 733.796791 745.178974 
C 732.958145 745.178974 732.153735 745.512171 731.560723 746.105183 
C 730.967711 746.698195 730.634513 747.502605 730.634513 748.341251 
C 730.634513 749.179897 730.967711 749.984307 731.560723 750.577319 
C 732.153735 751.170331 732.958145 751.503529 733.796791 751.503529 
L 733.796791 751.503529 
z
" clip-path="url(#p83aa36313f)" style="fill: none; stroke: #000000; stroke-opacity: 0.4"/>
   </g>
   <g id="PathCollection_31">
    <defs>
     <path id="m3509c5ee1f" d="M 0 6.324555 
C 1.677292 6.324555 3.286112 5.65816 4.472136 4.472136 
C 5.65816 3.286112 6.324555 1.677292 6.324555 0 
C 6.324555 -1.677292 5.65816 -3.286112 4.472136 -4.472136 
C 3.286112 -5.65816 1.677292 -6.324555 0 -6.324555 
C -1.677292 -6.324555 -3.286112 -5.65816 -4.472136 -4.472136 
C -5.65816 -3.286112 -6.324555 -1.677292 -6.324555 0 
C -6.324555 1.677292 -5.65816 3.286112 -4.472136 4.472136 
C -3.286112 5.65816 -1.677292 6.324555 0 6.324555 
z
" style="stroke: #d62728; stroke-opacity: 0.4"/>
    </defs>
    <g clip-path="url(#p83aa36313f)">
     <use xlink:href="#m3509c5ee1f" x="739.011558" y="783.902805" style="fill: #d62728; fill-opacity: 0.4; stroke: #d62728; stroke-opacity: 0.4"/>
    </g>
   </g>
   <g id="PathCollection_32">
    <g clip-path="url(#p83aa36313f)">
     <use xlink:href="#m4945158fae" x="719.909707" y="760.414228" style="fill-opacity: 0.4; stroke: #000000; stroke-opacity: 0.4"/>
    </g>
   </g>
   <g id="PathCollection_33">
    <path d="M 702.862158 812.405692 
C 703.700804 812.405692 704.505214 812.072494 705.098226 811.479482 
C 705.691238 810.88647 706.024436 810.08206 706.024436 809.243414 
C 706.024436 808.404768 705.691238 807.600358 705.098226 807.007346 
C 704.505214 806.414334 703.700804 806.081136 702.862158 806.081136 
C 702.023512 806.081136 701.219102 806.414334 700.62609 807.007346 
C 700.033078 807.600358 699.69988 808.404768 699.69988 809.243414 
C 699.69988 810.08206 700.033078 810.88647 700.62609 811.479482 
C 701.219102 812.072494 702.023512 812.405692 702.862158 812.405692 
L 702.862158 812.405692 
z
" clip-path="url(#p83aa36313f)" style="fill: none; stroke: #d62728; stroke-opacity: 0.4"/>
   </g>
   <g id="PathCollection_34">
    <path d="M 687.293707 786.43931 
C 688.132353 786.43931 688.936763 786.106113 689.529775 785.513101 
C 690.122787 784.920088 690.455985 784.115678 690.455985 783.277033 
C 690.455985 782.438387 690.122787 781.633977 689.529775 781.040965 
C 688.936763 780.447952 688.132353 780.114755 687.293707 780.114755 
C 686.455061 780.114755 685.650651 780.447952 685.057639 781.040965 
C 684.464627 781.633977 684.131429 782.438387 684.131429 783.277033 
C 684.131429 784.115678 684.464627 784.920088 685.057639 785.513101 
C 685.650651 786.106113 686.455061 786.43931 687.293707 786.43931 
L 687.293707 786.43931 
z
" clip-path="url(#p83aa36313f)" style="fill: none; stroke: #000000; stroke-opacity: 0.4"/>
   </g>
   <g id="PathCollection_35">
    <defs>
     <path id="md977deb292" d="M 0 5.477226 
C 1.452577 5.477226 2.845856 4.900111 3.872983 3.872983 
C 4.900111 2.845856 5.477226 1.452577 5.477226 0 
C 5.477226 -1.452577 4.900111 -2.845856 3.872983 -3.872983 
C 2.845856 -4.900111 1.452577 -5.477226 0 -5.477226 
C -1.452577 -5.477226 -2.845856 -4.900111 -3.872983 -3.872983 
C -4.900111 -2.845856 -5.477226 -1.452577 -5.477226 0 
C -5.477226 1.452577 -4.900111 2.845856 -3.872983 3.872983 
C -2.845856 4.900111 -1.452577 5.477226 0 5.477226 
z
" style="stroke: #d62728; stroke-opacity: 0.4"/>
    </defs>
    <g clip-path="url(#p83aa36313f)">
     <use xlink:href="#md977deb292" x="666.85814" y="827.744777" style="fill: #d62728; fill-opacity: 0.4; stroke: #d62728; stroke-opacity: 0.4"/>
    </g>
   </g>
   <g id="PathCollection_36">
    <defs>
     <path id="m093b8f8b9d" d="M 0 6.324555 
C 1.677292 6.324555 3.286112 5.65816 4.472136 4.472136 
C 5.65816 3.286112 6.324555 1.677292 6.324555 0 
C 6.324555 -1.677292 5.65816 -3.286112 4.472136 -4.472136 
C 3.286112 -5.65816 1.677292 -6.324555 0 -6.324555 
C -1.677292 -6.324555 -3.286112 -5.65816 -4.472136 -4.472136 
C -5.65816 -3.286112 -6.324555 -1.677292 -6.324555 0 
C -6.324555 1.677292 -5.65816 3.286112 -4.472136 4.472136 
C -3.286112 5.65816 -1.677292 6.324555 0 6.324555 
z
" style="stroke: #000000; stroke-opacity: 0.4"/>
    </defs>
    <g clip-path="url(#p83aa36313f)">
     <use xlink:href="#m093b8f8b9d" x="654.810447" y="799.970609" style="fill-opacity: 0.4; stroke: #000000; stroke-opacity: 0.4"/>
    </g>
   </g>
   <g id="PathCollection_37">
    <path d="M 640.721093 840.86884 
C 641.559739 840.86884 642.364149 840.535643 642.957161 839.942631 
C 643.550173 839.349619 643.883371 838.545209 643.883371 837.706563 
C 643.883371 836.867917 643.550173 836.063507 642.957161 835.470495 
C 642.364149 834.877483 641.559739 834.544285 640.721093 834.544285 
C 639.882447 834.544285 639.078037 834.877483 638.485025 835.470495 
C 637.892013 836.063507 637.558815 836.867917 637.558815 837.706563 
C 637.558815 838.545209 637.892013 839.349619 638.485025 839.942631 
C 639.078037 840.535643 639.882447 840.86884 640.721093 840.86884 
L 640.721093 840.86884 
z
" clip-path="url(#p83aa36313f)" style="fill: none; stroke: #d62728; stroke-opacity: 0.4"/>
   </g>
   <g id="PathCollection_38">
    <g clip-path="url(#p83aa36313f)">
     <use xlink:href="#m8f22813560" x="631.227056" y="808.958972" style="fill-opacity: 0.4; stroke: #000000; stroke-opacity: 0.4"/>
    </g>
   </g>
   <g id="PathCollection_39">
    <path d="M 621.322158 846.57664 
C 622.160804 846.57664 622.965214 846.243443 623.558226 845.650431 
C 624.151238 845.057419 624.484436 844.253009 624.484436 843.414363 
C 624.484436 842.575717 624.151238 841.771307 623.558226 841.178295 
C 622.965214 840.585283 622.160804 840.252085 621.322158 840.252085 
C 620.483512 840.252085 619.679102 840.585283 619.08609 841.178295 
C 618.493078 841.771307 618.15988 842.575717 618.15988 843.414363 
C 618.15988 844.253009 618.493078 845.057419 619.08609 845.650431 
C 619.679102 846.243443 620.483512 846.57664 621.322158 846.57664 
L 621.322158 846.57664 
z
" clip-path="url(#p83aa36313f)" style="fill: none; stroke: #d62728; stroke-opacity: 0.4"/>
   </g>
   <g id="PathCollection_40">
    <path d="M 613.7244 817.272808 
C 614.563046 817.272808 615.367456 816.93961 615.960468 816.346598 
C 616.55348 815.753586 616.886678 814.949176 616.886678 814.11053 
C 616.886678 813.271884 616.55348 812.467474 615.960468 811.874462 
C 615.367456 811.28145 614.563046 810.948253 613.7244 810.948253 
C 612.885754 810.948253 612.081344 811.28145 611.488332 811.874462 
C 610.89532 812.467474 610.562122 813.271884 610.562122 814.11053 
C 610.562122 814.949176 610.89532 815.753586 611.488332 816.346598 
C 612.081344 816.93961 612.885754 817.272808 613.7244 817.272808 
L 613.7244 817.272808 
z
" clip-path="url(#p83aa36313f)" style="fill: none; stroke: #000000; stroke-opacity: 0.4"/>
   </g>
   <g id="PathCollection_41">
    <path d="M 609.160688 849.471626 
C 609.999334 849.471626 610.803744 849.138429 611.396756 848.545417 
C 611.989769 847.952405 612.322966 847.147995 612.322966 846.309349 
C 612.322966 845.470703 611.989769 844.666293 611.396756 844.073281 
C 610.803744 843.480269 609.999334 843.147071 609.160688 843.147071 
C 608.322043 843.147071 607.517633 843.480269 606.92462 844.073281 
C 606.331608 844.666293 605.998411 845.470703 605.998411 846.309349 
C 605.998411 847.147995 606.331608 847.952405 606.92462 848.545417 
C 607.517633 849.138429 608.322043 849.471626 609.160688 849.471626 
L 609.160688 849.471626 
z
" clip-path="url(#p83aa36313f)" style="fill: none; stroke: #d62728; stroke-opacity: 0.4"/>
   </g>
   <g id="PathCollection_42">
    <path d="M 602.751265 819.883352 
C 603.589911 819.883352 604.394321 819.550155 604.987333 818.957142 
C 605.580345 818.36413 605.913543 817.55972 605.913543 816.721074 
C 605.913543 815.882429 605.580345 815.078019 604.987333 814.485006 
C 604.394321 813.891994 603.589911 813.558797 602.751265 813.558797 
C 601.912619 813.558797 601.108209 813.891994 600.515197 814.485006 
C 599.922185 815.078019 599.588987 815.882429 599.588987 816.721074 
C 599.588987 817.55972 599.922185 818.36413 600.515197 818.957142 
C 601.108209 819.550155 601.912619 819.883352 602.751265 819.883352 
L 602.751265 819.883352 
z
" clip-path="url(#p83aa36313f)" style="fill: none; stroke: #000000; stroke-opacity: 0.4"/>
   </g>
  </g>
 </g>
 <defs>
  <clipPath id="p83aa36313f">
   <rect x="0" y="0" width="1087.2" height="1087.2"/>
  </clipPath>
 </defs>
</svg>
