<?xml version="1.0" encoding="utf-8" standalone="no"?>
<!DOCTYPE svg PUBLIC "-//W3C//DTD SVG 1.1//EN"
  "http://www.w3.org/Graphics/SVG/1.1/DTD/svg11.dtd">
<svg xmlns:xlink="http://www.w3.org/1999/xlink" width="1440pt" height="1440pt" viewBox="0 0 1440 1440" xmlns="http://www.w3.org/2000/svg" version="1.1">
 <metadata>
  <rdf:RDF xmlns:dc="http://purl.org/dc/elements/1.1/" xmlns:cc="http://creativecommons.org/ns#" xmlns:rdf="http://www.w3.org/1999/02/22-rdf-syntax-ns#">
   <cc:Work>
    <dc:type rdf:resource="http://purl.org/dc/dcmitype/StillImage"/>
    <dc:date>2022-07-28T10:26:38.967872</dc:date>
    <dc:format>image/svg+xml</dc:format>
    <dc:creator>
     <cc:Agent>
      <dc:title>Matplotlib v3.5.1, https://matplotlib.org/</dc:title>
     </cc:Agent>
    </dc:creator>
   </cc:Work>
  </rdf:RDF>
 </metadata>
 <defs>
  <style type="text/css">*{stroke-linejoin: round; stroke-linecap: butt}</style>
 </defs>
 <g id="figure_1">
  <g id="patch_1">
   <path d="M 0 1440 
L 1440 1440 
L 1440 0 
L 0 0 
L 0 1440 
z
" style="fill: none"/>
  </g>
  <g id="axes_1">
   <g id="line2d_1">
    <path d="M 758.94474 743.873653 
L 758.709534 720.546548 
L 758.689554 720.691118 
M 758.94474 743.873653 
L 759.350534 767.107811 
M 761.427622 628.614106 
L 753.696211 626.507478 
L 750.965839 625.830142 
M 842.805981 612.416876 
L 831.913466 617.024391 
L 823.03734 620.75561 
L 809.334825 626.4952 
M 758.689554 720.691118 
L 758.459863 706.871053 
L 758.329667 698.293963 
M 760.878749 628.433794 
L 758.117546 627.585617 
M 760.878749 628.433794 
L 750.965839 625.830142 
M 742.52153 654.597583 
L 744.709906 648.026775 
L 745.7149 643.980724 
L 746.711747 640.008809 
L 748.639043 633.60951 
L 750.982409 625.793491 
L 750.965839 625.830142 
M 742.52153 654.597583 
L 750.796685 665.597516 
L 755.694385 672.259704 
L 758.248898 675.897377 
L 758.283483 675.686047 
M 742.52153 654.597583 
L 744.75706 654.301215 
L 745.957789 653.941339 
L 747.919519 653.015547 
L 753.245726 650.149187 
L 757.375435 648.306357 
L 776.1148 640.467896 
M 742.52153 654.597583 
L 740.866045 659.959797 
L 733.815974 684.706235 
L 731.289037 694.881177 
L 729.051473 701.910721 
L 725.964958 710.854253 
L 725.213246 712.966724 
L 725.144913 713.5 
M 758.329667 698.293963 
L 758.283483 675.686047 
M 750.965839 625.830142 
L 752.520205 626.158857 
M 725.144913 713.5 
L 731.645817 694.832342 
L 739.708349 675.18318 
L 746.141426 658.328974 
L 747.125442 655.429856 
L 747.218447 655.532586 
M 744.768991 624.80207 
L 746.013827 640.109078 
L 746.395723 645.563155 
L 747.050721 650.903251 
L 747.489099 653.955534 
L 747.218447 655.532586 
M 778.226498 678.558204 
L 769.636051 677.297283 
L 759.087025 675.965514 
L 758.268649 675.876424 
L 758.283483 675.686047 
M 778.226498 678.558204 
L 782.573576 679.354156 
L 789.278024 680.565227 
L 798.427941 682.323271 
M 798.427941 682.323271 
L 805.707668 683.768532 
L 810.887503 684.791842 
L 813.588438 685.148668 
L 817.880759 685.425092 
L 818.485453 686.424465 
M 818.01415 684.98303 
L 818.485453 686.424465 
M 818.01415 684.98303 
L 821.636794 679.764901 
M 809.334825 626.4952 
L 800.089165 630.46006 
L 789.669441 634.808273 
L 776.1148 640.467896 
M 838.007037 656.525478 
L 842.27015 666.126999 
L 845.93089 673.924781 
L 845.93089 674.474984 
M 838.007037 656.525478 
L 833.671305 662.461882 
L 833.67313 662.396342 
M 825.375027 674.351928 
L 829.76058 668.243083 
M 825.375027 674.351928 
L 821.446692 679.958021 
L 821.636794 679.764901 
M 829.76058 668.243083 
L 833.67313 662.396342 
M 747.167067 655.415744 
L 747.218447 655.532586 
M 747.172973 655.311271 
L 747.218447 655.532586 
M 747.218447 655.532586 
L 747.234469 655.801963 
M 747.218447 655.532586 
L 747.170868 655.411498 
L 747.170868 655.411498 
" clip-path="url(#pcbcf130c0a)" style="fill: none; stroke: #1f77b4; stroke-opacity: 0.8; stroke-width: 1.5; stroke-linecap: square"/>
   </g>
   <g id="line2d_2">
    <path d="M 810.314257 601.709083 
L 805.992412 610.120822 
L 804.140435 613.668947 
L 804.131602 613.64165 
M 810.314257 601.709083 
L 816.391371 589.888522 
L 816.563681 589.888522 
M 835.96627 652.923174 
L 823.701342 660.217855 
L 820.725071 662.166479 
L 816.761864 664.853385 
L 814.829643 665.89365 
L 812.957216 666.661463 
L 810.210146 667.555932 
L 810.24737 668.005189 
M 793.39064 738.548598 
L 793.060857 734.189827 
L 791.943964 724.815226 
L 790.22646 709.293825 
M 793.39064 738.548598 
L 793.906206 735.508345 
L 795.01914 730.644501 
L 800.091607 709.792848 
L 801.667607 702.932239 
M 793.39064 738.548598 
L 788.287156 746.871736 
L 783.802859 754.170701 
L 783.602036 754.297767 
M 793.39064 738.548598 
L 792.108861 780.838406 
M 793.39064 738.548598 
L 796.750749 743.991965 
L 797.947936 746.06597 
M 790.22646 709.293825 
L 787.042825 681.289601 
M 822.151483 669.794059 
L 814.990019 668.554983 
L 810.340497 667.913291 
L 809.989017 667.570678 
M 822.151483 669.794059 
L 829.172901 671.075382 
L 833.934659 671.943891 
M 759.437065 767.065575 
L 765.48844 763.640465 
L 767.502443 762.574408 
M 762.385306 628.938168 
L 755.750423 627.119238 
L 751.955659 626.03613 
M 797.794681 626.277643 
L 790.685156 639.851843 
L 790.78906 639.739925 
M 797.794681 626.277643 
L 804.090881 613.606139 
L 804.131602 613.64165 
M 777.427675 769.467124 
L 781.078774 760.071619 
L 783.104142 755.717941 
L 783.610189 754.669559 
L 783.602036 754.297767 
M 777.427675 769.467124 
L 770.906329 785.297281 
L 771.046356 785.298019 
M 759.777567 628.083826 
L 755.897425 627.141473 
L 751.955659 626.03613 
M 822.221508 792.901501 
L 820.601304 790.242782 
L 818.321761 785.99029 
L 816.80554 782.946016 
M 822.221508 792.901501 
L 822.211894 792.91224 
M 783.386637 654.396324 
L 778.248359 650.683514 
L 765.645991 641.155715 
M 783.386637 654.396324 
L 785.500874 650.580192 
L 789.020627 643.473489 
L 790.78906 639.739925 
M 783.386637 654.396324 
L 787.042825 681.289601 
M 783.386637 654.396324 
L 785.284398 652.635368 
L 788.377639 650.250071 
L 792.731678 646.816598 
L 794.49607 645.365344 
L 794.566918 645.457352 
M 845.804269 674.111238 
L 833.934659 671.943891 
M 845.804269 674.111238 
L 820.366329 669.530865 
L 813.982677 668.37159 
L 810.33573 667.824055 
L 810.24737 668.005189 
M 767.502443 762.574408 
L 774.970914 758.495085 
L 775.735376 758.091652 
L 775.618126 758.142202 
M 756.448184 627.119666 
L 758.977936 628.030251 
L 759.225303 627.914183 
M 797.947936 746.06597 
L 802.345053 754.692739 
M 821.964612 793.188466 
L 822.211894 792.91224 
M 821.964612 793.188466 
L 820.255466 791.125279 
L 818.911514 789.830171 
L 815.92363 787.384072 
L 811.042084 783.385389 
L 799.589468 773.480949 
M 806.162857 636.970141 
L 803.069803 639.136817 
L 796.292538 644.069209 
L 794.472388 645.343745 
L 794.566918 645.457352 
M 806.162857 636.970141 
L 814.758031 630.796463 
L 817.352684 628.957775 
M 757.272218 648.556553 
L 751.142473 654.359416 
L 749.268496 656.065732 
M 757.272218 648.556553 
L 761.733069 644.568669 
L 765.526239 640.957017 
L 765.645991 641.155715 
M 770.234485 794.934152 
L 769.745003 787.95871 
L 771.046356 785.298019 
M 770.234485 794.934152 
L 783.07175 821.383978 
L 783.376337 821.707435 
M 783.602036 754.297767 
L 779.580649 756.288445 
L 775.618126 758.142202 
M 745.556278 624.907982 
L 751.955659 626.03613 
M 816.80554 782.946016 
L 811.763723 773.309149 
M 802.345053 754.692739 
L 806.573162 762.779989 
L 807.226016 764.049665 
L 807.074401 763.753699 
M 749.268496 656.065732 
L 745.41325 665.08831 
L 742.148626 673.205488 
L 734.783851 691.981881 
L 731.055743 700.464293 
L 725.144913 713.5 
M 762.222547 634.172749 
L 764.84624 639.935179 
L 765.645991 641.155715 
M 762.222547 634.172749 
L 760.884788 629.200127 
L 759.225303 627.914183 
M 762.930889 629.1282 
L 755.404597 627.095327 
L 751.955659 626.03613 
M 763.90262 797.523499 
L 767.547096 791.437113 
L 771.046356 785.298019 
M 753.123895 657.284172 
L 743.226547 676.82218 
L 736.604485 688.693422 
L 733.623248 695.006025 
L 727.31412 708.51293 
L 725.393828 712.539751 
L 725.144913 713.5 
M 807.074401 763.753699 
L 811.763723 773.309149 
M 765.645991 641.155715 
L 764.014201 638.597439 
L 760.064479 633.255606 
L 757.904436 630.624929 
L 756.330871 629.111894 
L 754.639177 627.798897 
L 751.955659 626.03613 
M 801.667607 702.932239 
L 808.274918 675.391348 
L 810.212741 667.743113 
L 809.989017 667.570678 
M 751.955659 626.03613 
L 750.399203 625.717462 
L 750.399203 625.717462 
" clip-path="url(#pcbcf130c0a)" style="fill: none; stroke: #d62728; stroke-opacity: 0.8; stroke-width: 1.5; stroke-linecap: square"/>
   </g>
  </g>
 </g>
 <defs>
  <clipPath id="pcbcf130c0a">
   <rect x="37.275" y="17.5375" width="1391.925" height="1391.925"/>
  </clipPath>
 </defs>
</svg>
