<?xml version="1.0" encoding="utf-8" standalone="no"?>
<!DOCTYPE svg PUBLIC "-//W3C//DTD SVG 1.1//EN"
  "http://www.w3.org/Graphics/SVG/1.1/DTD/svg11.dtd">
<svg xmlns:xlink="http://www.w3.org/1999/xlink" width="1087.2pt" height="1087.2pt" viewBox="0 0 1087.2 1087.2" xmlns="http://www.w3.org/2000/svg" version="1.1">
 <metadata>
  <rdf:RDF xmlns:dc="http://purl.org/dc/elements/1.1/" xmlns:cc="http://creativecommons.org/ns#" xmlns:rdf="http://www.w3.org/1999/02/22-rdf-syntax-ns#">
   <cc:Work>
    <dc:type rdf:resource="http://purl.org/dc/dcmitype/StillImage"/>
    <dc:date>2022-07-28T09:52:34.483617</dc:date>
    <dc:format>image/svg+xml</dc:format>
    <dc:creator>
     <cc:Agent>
      <dc:title>Matplotlib v3.5.1, https://matplotlib.org/</dc:title>
     </cc:Agent>
    </dc:creator>
   </cc:Work>
  </rdf:RDF>
 </metadata>
 <defs>
  <style type="text/css">*{stroke-linejoin: round; stroke-linecap: butt}</style>
 </defs>
 <g id="figure_1">
  <g id="axes_1">
   <g id="PathCollection_1">
    <defs>
     <path id="me74258cf09" d="M 0 19.748418 
C 5.237342 19.748418 10.26088 17.6676 13.96424 13.96424 
C 17.6676 10.26088 19.748418 5.237342 19.748418 0 
C 19.748418 -5.237342 17.6676 -10.26088 13.96424 -13.96424 
C 10.26088 -17.6676 5.237342 -19.748418 0 -19.748418 
C -5.237342 -19.748418 -10.26088 -17.6676 -13.96424 -13.96424 
C -17.6676 -10.26088 -19.748418 -5.237342 -19.748418 0 
C -19.748418 5.237342 -17.6676 10.26088 -13.96424 13.96424 
C -10.26088 17.6676 -5.237342 19.748418 0 19.748418 
z
" style="stroke: #d62728; stroke-opacity: 0.4"/>
    </defs>
    <g clip-path="url(#p8689955c12)">
     <use xlink:href="#me74258cf09" x="581.291707" y="236.175237" style="fill: #d62728; fill-opacity: 0.4; stroke: #d62728; stroke-opacity: 0.4"/>
    </g>
   </g>
   <g id="PathCollection_2">
    <defs>
     <path id="m0a6bc99bc3" d="M 0 7.071068 
C 1.875269 7.071068 3.673985 6.326016 5 5 
C 6.326016 3.673985 7.071068 1.875269 7.071068 0 
C 7.071068 -1.875269 6.326016 -3.673985 5 -5 
C 3.673985 -6.326016 1.875269 -7.071068 0 -7.071068 
C -1.875269 -7.071068 -3.673985 -6.326016 -5 -5 
C -6.326016 -3.673985 -7.071068 -1.875269 -7.071068 0 
C -7.071068 1.875269 -6.326016 3.673985 -5 5 
C -3.673985 6.326016 -1.875269 7.071068 0 7.071068 
z
" style="stroke: #000000; stroke-opacity: 0.4"/>
    </defs>
    <g clip-path="url(#p8689955c12)">
     <use xlink:href="#m0a6bc99bc3" x="577.606605" y="266.22494" style="fill-opacity: 0.4; stroke: #000000; stroke-opacity: 0.4"/>
    </g>
   </g>
   <g id="PathCollection_3">
    <defs>
     <path id="mead4c9b3a1" d="M 0 8.944272 
C 2.372049 8.944272 4.647264 8.001847 6.324555 6.324555 
C 8.001847 4.647264 8.944272 2.372049 8.944272 0 
C 8.944272 -2.372049 8.001847 -4.647264 6.324555 -6.324555 
C 4.647264 -8.001847 2.372049 -8.944272 0 -8.944272 
C -2.372049 -8.944272 -4.647264 -8.001847 -6.324555 -6.324555 
C -8.001847 -4.647264 -8.944272 -2.372049 -8.944272 0 
C -8.944272 2.372049 -8.001847 4.647264 -6.324555 6.324555 
C -4.647264 8.001847 -2.372049 8.944272 0 8.944272 
z
" style="stroke: #d62728; stroke-opacity: 0.4"/>
    </defs>
    <g clip-path="url(#p8689955c12)">
     <use xlink:href="#mead4c9b3a1" x="640.101642" y="249.291167" style="fill: #d62728; fill-opacity: 0.4; stroke: #d62728; stroke-opacity: 0.4"/>
    </g>
   </g>
   <g id="PathCollection_4">
    <defs>
     <path id="m7a7e40082d" d="M 0 13.038405 
C 3.457825 13.038405 6.774493 11.664596 9.219544 9.219544 
C 11.664596 6.774493 13.038405 3.457825 13.038405 0 
C 13.038405 -3.457825 11.664596 -6.774493 9.219544 -9.219544 
C 6.774493 -11.664596 3.457825 -13.038405 0 -13.038405 
C -3.457825 -13.038405 -6.774493 -11.664596 -9.219544 -9.219544 
C -11.664596 -6.774493 -13.038405 -3.457825 -13.038405 0 
C -13.038405 3.457825 -11.664596 6.774493 -9.219544 9.219544 
C -6.774493 11.664596 -3.457825 13.038405 0 13.038405 
z
" style="stroke: #000000; stroke-opacity: 0.4"/>
    </defs>
    <g clip-path="url(#p8689955c12)">
     <use xlink:href="#m7a7e40082d" x="630.670814" y="278.057721" style="fill-opacity: 0.4; stroke: #000000; stroke-opacity: 0.4"/>
    </g>
   </g>
   <g id="PathCollection_5">
    <defs>
     <path id="m7a2e8166e7" d="M 0 26.832816 
C 7.116146 26.832816 13.941791 24.005541 18.973666 18.973666 
C 24.005541 13.941791 26.832816 7.116146 26.832816 0 
C 26.832816 -7.116146 24.005541 -13.941791 18.973666 -18.973666 
C 13.941791 -24.005541 7.116146 -26.832816 0 -26.832816 
C -7.116146 -26.832816 -13.941791 -24.005541 -18.973666 -18.973666 
C -24.005541 -13.941791 -26.832816 -7.116146 -26.832816 0 
C -26.832816 7.116146 -24.005541 13.941791 -18.973666 18.973666 
C -13.941791 24.005541 -7.116146 26.832816 0 26.832816 
z
" style="stroke: #d62728; stroke-opacity: 0.4"/>
    </defs>
    <g clip-path="url(#p8689955c12)">
     <use xlink:href="#m7a2e8166e7" x="713.854256" y="284.865363" style="fill: #d62728; fill-opacity: 0.4; stroke: #d62728; stroke-opacity: 0.4"/>
    </g>
   </g>
   <g id="PathCollection_6">
    <path d="M 697.217567 313.317682 
C 698.056213 313.317682 698.860623 312.984485 699.453635 312.391473 
C 700.046648 311.79846 700.379845 310.99405 700.379845 310.155405 
C 700.379845 309.316759 700.046648 308.512349 699.453635 307.919337 
C 698.860623 307.326325 698.056213 306.993127 697.217567 306.993127 
C 696.378922 306.993127 695.574512 307.326325 694.981499 307.919337 
C 694.388487 308.512349 694.05529 309.316759 694.05529 310.155405 
C 694.05529 310.99405 694.388487 311.79846 694.981499 312.391473 
C 695.574512 312.984485 696.378922 313.317682 697.217567 313.317682 
L 697.217567 313.317682 
z
" clip-path="url(#p8689955c12)" style="fill: none; stroke: #000000; stroke-opacity: 0.4"/>
   </g>
   <g id="PathCollection_7">
    <defs>
     <path id="meb3683c2b2" d="M 0 14.142136 
C 3.750538 14.142136 7.347969 12.652031 10 10 
C 12.652031 7.347969 14.142136 3.750538 14.142136 0 
C 14.142136 -3.750538 12.652031 -7.347969 10 -10 
C 7.347969 -12.652031 3.750538 -14.142136 0 -14.142136 
C -3.750538 -14.142136 -7.347969 -12.652031 -10 -10 
C -12.652031 -7.347969 -14.142136 -3.750538 -14.142136 0 
C -14.142136 3.750538 -12.652031 7.347969 -10 10 
C -7.347969 12.652031 -3.750538 14.142136 0 14.142136 
z
" style="stroke: #d62728; stroke-opacity: 0.4"/>
    </defs>
    <g clip-path="url(#p8689955c12)">
     <use xlink:href="#meb3683c2b2" x="751.128781" y="313.682484" style="fill: #d62728; fill-opacity: 0.4; stroke: #d62728; stroke-opacity: 0.4"/>
    </g>
   </g>
   <g id="PathCollection_8">
    <defs>
     <path id="m7ebd8c1ed9" d="M 0 3.162278 
C 0.838646 3.162278 1.643056 2.82908 2.236068 2.236068 
C 2.82908 1.643056 3.162278 0.838646 3.162278 0 
C 3.162278 -0.838646 2.82908 -1.643056 2.236068 -2.236068 
C 1.643056 -2.82908 0.838646 -3.162278 0 -3.162278 
C -0.838646 -3.162278 -1.643056 -2.82908 -2.236068 -2.236068 
C -2.82908 -1.643056 -3.162278 -0.838646 -3.162278 0 
C -3.162278 0.838646 -2.82908 1.643056 -2.236068 2.236068 
C -1.643056 2.82908 -0.838646 3.162278 0 3.162278 
z
" style="stroke: #000000; stroke-opacity: 0.4"/>
    </defs>
    <g clip-path="url(#p8689955c12)">
     <use xlink:href="#m7ebd8c1ed9" x="730.844916" y="336.159712" style="fill-opacity: 0.4; stroke: #000000; stroke-opacity: 0.4"/>
    </g>
   </g>
   <g id="PathCollection_9">
    <path d="M 773.68186 339.416803 
C 774.520506 339.416803 775.324916 339.083606 775.917928 338.490594 
C 776.510941 337.897581 776.844138 337.093171 776.844138 336.254526 
C 776.844138 335.41588 776.510941 334.61147 775.917928 334.018458 
C 775.324916 333.425445 774.520506 333.092248 773.68186 333.092248 
C 772.843215 333.092248 772.038805 333.425445 771.445792 334.018458 
C 770.85278 334.61147 770.519583 335.41588 770.519583 336.254526 
C 770.519583 337.093171 770.85278 337.897581 771.445792 338.490594 
C 772.038805 339.083606 772.843215 339.416803 773.68186 339.416803 
L 773.68186 339.416803 
z
" clip-path="url(#p8689955c12)" style="fill: none; stroke: #d62728; stroke-opacity: 0.4"/>
   </g>
   <g id="PathCollection_10">
    <path d="M 751.191991 359.681706 
C 752.030637 359.681706 752.835047 359.348508 753.428059 358.755496 
C 754.021071 358.162484 754.354268 357.358074 754.354268 356.519428 
C 754.354268 355.680782 754.021071 354.876372 753.428059 354.28336 
C 752.835047 353.690348 752.030637 353.35715 751.191991 353.35715 
C 750.353345 353.35715 749.548935 353.690348 748.955923 354.28336 
C 748.362911 354.876372 748.029713 355.680782 748.029713 356.519428 
C 748.029713 357.358074 748.362911 358.162484 748.955923 358.755496 
C 749.548935 359.348508 750.353345 359.681706 751.191991 359.681706 
L 751.191991 359.681706 
z
" clip-path="url(#p8689955c12)" style="fill: none; stroke: #000000; stroke-opacity: 0.4"/>
   </g>
   <g id="PathCollection_11">
    <path d="M 795.185665 366.116413 
C 796.024311 366.116413 796.828721 365.783215 797.421733 365.190203 
C 798.014745 364.597191 798.347943 363.792781 798.347943 362.954135 
C 798.347943 362.115489 798.014745 361.311079 797.421733 360.718067 
C 796.828721 360.125055 796.024311 359.791857 795.185665 359.791857 
C 794.347019 359.791857 793.542609 360.125055 792.949597 360.718067 
C 792.356585 361.311079 792.023387 362.115489 792.023387 362.954135 
C 792.023387 363.792781 792.356585 364.597191 792.949597 365.190203 
C 793.542609 365.783215 794.347019 366.116413 795.185665 366.116413 
L 795.185665 366.116413 
z
" clip-path="url(#p8689955c12)" style="fill: none; stroke: #d62728; stroke-opacity: 0.4"/>
   </g>
   <g id="PathCollection_12">
    <defs>
     <path id="m8642db8518" d="M 0 4.472136 
C 1.186024 4.472136 2.323632 4.000923 3.162278 3.162278 
C 4.000923 2.323632 4.472136 1.186024 4.472136 0 
C 4.472136 -1.186024 4.000923 -2.323632 3.162278 -3.162278 
C 2.323632 -4.000923 1.186024 -4.472136 0 -4.472136 
C -1.186024 -4.472136 -2.323632 -4.000923 -3.162278 -3.162278 
C -4.000923 -2.323632 -4.472136 -1.186024 -4.472136 0 
C -4.472136 1.186024 -4.000923 2.323632 -3.162278 3.162278 
C -2.323632 4.000923 -1.186024 4.472136 0 4.472136 
z
" style="stroke: #000000; stroke-opacity: 0.4"/>
    </defs>
    <g clip-path="url(#p8689955c12)">
     <use xlink:href="#m8642db8518" x="770.597247" y="380.608493" style="fill-opacity: 0.4; stroke: #000000; stroke-opacity: 0.4"/>
    </g>
   </g>
   <g id="PathCollection_13">
    <path d="M 822.631144 412.335054 
C 823.46979 412.335054 824.2742 412.001857 824.867212 411.408845 
C 825.460224 410.815833 825.793422 410.011423 825.793422 409.172777 
C 825.793422 408.334131 825.460224 407.529721 824.867212 406.936709 
C 824.2742 406.343697 823.46979 406.010499 822.631144 406.010499 
C 821.792498 406.010499 820.988088 406.343697 820.395076 406.936709 
C 819.802064 407.529721 819.468867 408.334131 819.468867 409.172777 
C 819.468867 410.011423 819.802064 410.815833 820.395076 411.408845 
C 820.988088 412.001857 821.792498 412.335054 822.631144 412.335054 
L 822.631144 412.335054 
z
" clip-path="url(#p8689955c12)" style="fill: none; stroke: #d62728; stroke-opacity: 0.4"/>
   </g>
   <g id="PathCollection_14">
    <path d="M 795.35633 425.476268 
C 796.194976 425.476268 796.999386 425.143071 797.592398 424.550059 
C 798.18541 423.957047 798.518608 423.152637 798.518608 422.313991 
C 798.518608 421.475345 798.18541 420.670935 797.592398 420.077923 
C 796.999386 419.484911 796.194976 419.151713 795.35633 419.151713 
C 794.517684 419.151713 793.713274 419.484911 793.120262 420.077923 
C 792.52725 420.670935 792.194053 421.475345 792.194053 422.313991 
C 792.194053 423.152637 792.52725 423.957047 793.120262 424.550059 
C 793.713274 425.143071 794.517684 425.476268 795.35633 425.476268 
L 795.35633 425.476268 
z
" clip-path="url(#p8689955c12)" style="fill: none; stroke: #000000; stroke-opacity: 0.4"/>
   </g>
   <g id="PathCollection_15">
    <defs>
     <path id="me2e3573887" d="M 0 7.745967 
C 2.054254 7.745967 4.024648 6.929803 5.477226 5.477226 
C 6.929803 4.024648 7.745967 2.054254 7.745967 0 
C 7.745967 -2.054254 6.929803 -4.024648 5.477226 -5.477226 
C 4.024648 -6.929803 2.054254 -7.745967 0 -7.745967 
C -2.054254 -7.745967 -4.024648 -6.929803 -5.477226 -5.477226 
C -6.929803 -4.024648 -7.745967 -2.054254 -7.745967 0 
C -7.745967 2.054254 -6.929803 4.024648 -5.477226 5.477226 
C -4.024648 6.929803 -2.054254 7.745967 0 7.745967 
z
" style="stroke: #d62728; stroke-opacity: 0.4"/>
    </defs>
    <g clip-path="url(#p8689955c12)">
     <use xlink:href="#me2e3573887" x="847.889581" y="485.820377" style="fill: #d62728; fill-opacity: 0.4; stroke: #d62728; stroke-opacity: 0.4"/>
    </g>
   </g>
   <g id="PathCollection_16">
    <defs>
     <path id="m7ac207e94d" d="M 0 7.745967 
C 2.054254 7.745967 4.024648 6.929803 5.477226 5.477226 
C 6.929803 4.024648 7.745967 2.054254 7.745967 0 
C 7.745967 -2.054254 6.929803 -4.024648 5.477226 -5.477226 
C 4.024648 -6.929803 2.054254 -7.745967 0 -7.745967 
C -2.054254 -7.745967 -4.024648 -6.929803 -5.477226 -5.477226 
C -6.929803 -4.024648 -7.745967 -2.054254 -7.745967 0 
C -7.745967 2.054254 -6.929803 4.024648 -5.477226 5.477226 
C -4.024648 6.929803 -2.054254 7.745967 0 7.745967 
z
" style="stroke: #000000; stroke-opacity: 0.4"/>
    </defs>
    <g clip-path="url(#p8689955c12)">
     <use xlink:href="#m7ac207e94d" x="818.143284" y="491.464967" style="fill-opacity: 0.4; stroke: #000000; stroke-opacity: 0.4"/>
    </g>
   </g>
   <g id="PathCollection_17">
    <defs>
     <path id="m7b0ce0b3ee" d="M 0 23.2379 
C 6.162763 23.2379 12.073945 20.789408 16.431677 16.431677 
C 20.789408 12.073945 23.2379 6.162763 23.2379 0 
C 23.2379 -6.162763 20.789408 -12.073945 16.431677 -16.431677 
C 12.073945 -20.789408 6.162763 -23.2379 0 -23.2379 
C -6.162763 -23.2379 -12.073945 -20.789408 -16.431677 -16.431677 
C -20.789408 -12.073945 -23.2379 -6.162763 -23.2379 0 
C -23.2379 6.162763 -20.789408 12.073945 -16.431677 16.431677 
C -12.073945 20.789408 -6.162763 23.2379 0 23.2379 
z
" style="stroke: #d62728; stroke-opacity: 0.4"/>
    </defs>
    <g clip-path="url(#p8689955c12)">
     <use xlink:href="#m7b0ce0b3ee" x="852.50386" y="521.015316" style="fill: #d62728; fill-opacity: 0.4; stroke: #d62728; stroke-opacity: 0.4"/>
    </g>
   </g>
   <g id="PathCollection_18">
    <g clip-path="url(#p8689955c12)">
     <use xlink:href="#m8642db8518" x="822.308777" y="523.221321" style="fill-opacity: 0.4; stroke: #000000; stroke-opacity: 0.4"/>
    </g>
   </g>
   <g id="PathCollection_19">
    <defs>
     <path id="mde2d05ff2e" d="M 0 15.811388 
C 4.193229 15.811388 8.215279 14.145401 11.18034 11.18034 
C 14.145401 8.215279 15.811388 4.193229 15.811388 0 
C 15.811388 -4.193229 14.145401 -8.215279 11.18034 -11.18034 
C 8.215279 -14.145401 4.193229 -15.811388 0 -15.811388 
C -4.193229 -15.811388 -8.215279 -14.145401 -11.18034 -11.18034 
C -14.145401 -8.215279 -15.811388 -4.193229 -15.811388 0 
C -15.811388 4.193229 -14.145401 8.215279 -11.18034 11.18034 
C -8.215279 14.145401 -4.193229 15.811388 0 15.811388 
z
" style="stroke: #d62728; stroke-opacity: 0.4"/>
    </defs>
    <g clip-path="url(#p8689955c12)">
     <use xlink:href="#mde2d05ff2e" x="852.50386" y="566.172042" style="fill: #d62728; fill-opacity: 0.4; stroke: #d62728; stroke-opacity: 0.4"/>
    </g>
   </g>
   <g id="PathCollection_20">
    <path d="M 822.308777 567.128315 
C 823.147423 567.128315 823.951833 566.795117 824.544845 566.202105 
C 825.137857 565.609093 825.471054 564.804683 825.471054 563.966037 
C 825.471054 563.127391 825.137857 562.322981 824.544845 561.729969 
C 823.951833 561.136957 823.147423 560.80376 822.308777 560.80376 
C 821.470131 560.80376 820.665721 561.136957 820.072709 561.729969 
C 819.479697 562.322981 819.146499 563.127391 819.146499 563.966037 
C 819.146499 564.804683 819.479697 565.609093 820.072709 566.202105 
C 820.665721 566.795117 821.470131 567.128315 822.308777 567.128315 
L 822.308777 567.128315 
z
" clip-path="url(#p8689955c12)" style="fill: none; stroke: #000000; stroke-opacity: 0.4"/>
   </g>
   <g id="PathCollection_21">
    <defs>
     <path id="maf5f204f61" d="M 0 10.954451 
C 2.905154 10.954451 5.691712 9.800221 7.745967 7.745967 
C 9.800221 5.691712 10.954451 2.905154 10.954451 0 
C 10.954451 -2.905154 9.800221 -5.691712 7.745967 -7.745967 
C 5.691712 -9.800221 2.905154 -10.954451 0 -10.954451 
C -2.905154 -10.954451 -5.691712 -9.800221 -7.745967 -7.745967 
C -9.800221 -5.691712 -10.954451 -2.905154 -10.954451 0 
C -10.954451 2.905154 -9.800221 5.691712 -7.745967 7.745967 
C -5.691712 9.800221 -2.905154 10.954451 0 10.954451 
z
" style="stroke: #d62728; stroke-opacity: 0.4"/>
    </defs>
    <g clip-path="url(#p8689955c12)">
     <use xlink:href="#maf5f204f61" x="843.585028" y="620.65846" style="fill: #d62728; fill-opacity: 0.4; stroke: #d62728; stroke-opacity: 0.4"/>
    </g>
   </g>
   <g id="PathCollection_22">
    <path d="M 814.262233 616.29251 
C 815.100878 616.29251 815.905288 615.959313 816.498301 615.366301 
C 817.091313 614.773288 817.42451 613.968878 817.42451 613.130233 
C 817.42451 612.291587 817.091313 611.487177 816.498301 610.894165 
C 815.905288 610.301152 815.100878 609.967955 814.262233 609.967955 
C 813.423587 609.967955 812.619177 610.301152 812.026165 610.894165 
C 811.433152 611.487177 811.099955 612.291587 811.099955 613.130233 
C 811.099955 613.968878 811.433152 614.773288 812.026165 615.366301 
C 812.619177 615.959313 813.423587 616.29251 814.262233 616.29251 
L 814.262233 616.29251 
z
" clip-path="url(#p8689955c12)" style="fill: none; stroke: #000000; stroke-opacity: 0.4"/>
   </g>
   <g id="PathCollection_23">
    <defs>
     <path id="m19c8589067" d="M 0 19.493589 
C 5.16976 19.493589 10.128476 17.439621 13.784049 13.784049 
C 17.439621 10.128476 19.493589 5.16976 19.493589 0 
C 19.493589 -5.16976 17.439621 -10.128476 13.784049 -13.784049 
C 10.128476 -17.439621 5.16976 -19.493589 0 -19.493589 
C -5.16976 -19.493589 -10.128476 -17.439621 -13.784049 -13.784049 
C -17.439621 -10.128476 -19.493589 -5.16976 -19.493589 0 
C -19.493589 5.16976 -17.439621 10.128476 -13.784049 13.784049 
C -10.128476 17.439621 -5.16976 19.493589 0 19.493589 
z
" style="stroke: #d62728; stroke-opacity: 0.4"/>
    </defs>
    <g clip-path="url(#p8689955c12)">
     <use xlink:href="#m19c8589067" x="782.885135" y="740.256781" style="fill: #d62728; fill-opacity: 0.4; stroke: #d62728; stroke-opacity: 0.4"/>
    </g>
   </g>
   <g id="PathCollection_24">
    <path d="M 759.491372 724.19711 
C 760.330018 724.19711 761.134428 723.863913 761.72744 723.270901 
C 762.320452 722.677888 762.65365 721.873478 762.65365 721.034833 
C 762.65365 720.196187 762.320452 719.391777 761.72744 718.798765 
C 761.134428 718.205752 760.330018 717.872555 759.491372 717.872555 
C 758.652726 717.872555 757.848316 718.205752 757.255304 718.798765 
C 756.662292 719.391777 756.329094 720.196187 756.329094 721.034833 
C 756.329094 721.873478 756.662292 722.677888 757.255304 723.270901 
C 757.848316 723.863913 758.652726 724.19711 759.491372 724.19711 
L 759.491372 724.19711 
z
" clip-path="url(#p8689955c12)" style="fill: none; stroke: #000000; stroke-opacity: 0.4"/>
   </g>
   <g id="PathCollection_25">
    <defs>
     <path id="mf03b0b0f6e" d="M 0 15.165751 
C 4.022004 15.165751 7.879819 13.567792 10.723805 10.723805 
C 13.567792 7.879819 15.165751 4.022004 15.165751 0 
C 15.165751 -4.022004 13.567792 -7.879819 10.723805 -10.723805 
C 7.879819 -13.567792 4.022004 -15.165751 0 -15.165751 
C -4.022004 -15.165751 -7.879819 -13.567792 -10.723805 -10.723805 
C -13.567792 -7.879819 -15.165751 -4.022004 -15.165751 0 
C -15.165751 4.022004 -13.567792 7.879819 -10.723805 10.723805 
C -7.879819 13.567792 -4.022004 15.165751 0 15.165751 
z
" style="stroke: #d62728; stroke-opacity: 0.4"/>
    </defs>
    <g clip-path="url(#p8689955c12)">
     <use xlink:href="#mf03b0b0f6e" x="685.68187" y="818.813302" style="fill: #d62728; fill-opacity: 0.4; stroke: #d62728; stroke-opacity: 0.4"/>
    </g>
   </g>
   <g id="PathCollection_26">
    <defs>
     <path id="m0e8c8024d1" d="M 0 5.477226 
C 1.452577 5.477226 2.845856 4.900111 3.872983 3.872983 
C 4.900111 2.845856 5.477226 1.452577 5.477226 0 
C 5.477226 -1.452577 4.900111 -2.845856 3.872983 -3.872983 
C 2.845856 -4.900111 1.452577 -5.477226 0 -5.477226 
C -1.452577 -5.477226 -2.845856 -4.900111 -3.872983 -3.872983 
C -4.900111 -2.845856 -5.477226 -1.452577 -5.477226 0 
C -5.477226 1.452577 -4.900111 2.845856 -3.872983 3.872983 
C -2.845856 4.900111 -1.452577 5.477226 0 5.477226 
z
" style="stroke: #000000; stroke-opacity: 0.4"/>
    </defs>
    <g clip-path="url(#p8689955c12)">
     <use xlink:href="#m0e8c8024d1" x="671.794786" y="791.911423" style="fill-opacity: 0.4; stroke: #000000; stroke-opacity: 0.4"/>
    </g>
   </g>
   <g id="PathCollection_27">
    <g clip-path="url(#p8689955c12)">
     <use xlink:href="#me2e3573887" x="652.370567" y="833.597958" style="fill: #d62728; fill-opacity: 0.4; stroke: #d62728; stroke-opacity: 0.4"/>
    </g>
   </g>
   <g id="PathCollection_28">
    <path d="M 641.738763 808.417185 
C 642.577409 808.417185 643.381819 808.083987 643.974831 807.490975 
C 644.567843 806.897963 644.90104 806.093553 644.90104 805.254907 
C 644.90104 804.416261 644.567843 803.611851 643.974831 803.018839 
C 643.381819 802.425827 642.577409 802.092629 641.738763 802.092629 
C 640.900117 802.092629 640.095707 802.425827 639.502695 803.018839 
C 638.909683 803.611851 638.576485 804.416261 638.576485 805.254907 
C 638.576485 806.093553 638.909683 806.897963 639.502695 807.490975 
C 640.095707 808.083987 640.900117 808.417185 641.738763 808.417185 
L 641.738763 808.417185 
z
" clip-path="url(#p8689955c12)" style="fill: none; stroke: #000000; stroke-opacity: 0.4"/>
   </g>
   <g id="PathCollection_29">
    <path d="M 644.84866 839.471915 
C 645.687306 839.471915 646.491716 839.138717 647.084728 838.545705 
C 647.677741 837.952693 648.010938 837.148283 648.010938 836.309637 
C 648.010938 835.470991 647.677741 834.666581 647.084728 834.073569 
C 646.491716 833.480557 645.687306 833.14736 644.84866 833.14736 
C 644.010015 833.14736 643.205605 833.480557 642.612592 834.073569 
C 642.01958 834.666581 641.686383 835.470991 641.686383 836.309637 
C 641.686383 837.148283 642.01958 837.952693 642.612592 838.545705 
C 643.205605 839.138717 644.010015 839.471915 644.84866 839.471915 
L 644.84866 839.471915 
z
" clip-path="url(#p8689955c12)" style="fill: none; stroke: #d62728; stroke-opacity: 0.4"/>
   </g>
   <g id="PathCollection_30">
    <path d="M 634.950084 810.863385 
C 635.78873 810.863385 636.59314 810.530187 637.186152 809.937175 
C 637.779164 809.344163 638.112361 808.539753 638.112361 807.701107 
C 638.112361 806.862461 637.779164 806.058051 637.186152 805.465039 
C 636.59314 804.872027 635.78873 804.538829 634.950084 804.538829 
C 634.111438 804.538829 633.307028 804.872027 632.714016 805.465039 
C 632.121004 806.058051 631.787806 806.862461 631.787806 807.701107 
C 631.787806 808.539753 632.121004 809.344163 632.714016 809.937175 
C 633.307028 810.530187 634.111438 810.863385 634.950084 810.863385 
L 634.950084 810.863385 
z
" clip-path="url(#p8689955c12)" style="fill: none; stroke: #000000; stroke-opacity: 0.4"/>
   </g>
   <g id="PathCollection_31">
    <path d="M 636.207949 842.316333 
C 637.046595 842.316333 637.851005 841.983136 638.444017 841.390124 
C 639.037029 840.797112 639.370226 839.992702 639.370226 839.154056 
C 639.370226 838.31541 639.037029 837.511 638.444017 836.917988 
C 637.851005 836.324976 637.046595 835.991778 636.207949 835.991778 
C 635.369303 835.991778 634.564893 836.324976 633.971881 836.917988 
C 633.378869 837.511 633.045671 838.31541 633.045671 839.154056 
C 633.045671 839.992702 633.378869 840.797112 633.971881 841.390124 
C 634.564893 841.983136 635.369303 842.316333 636.207949 842.316333 
L 636.207949 842.316333 
z
" clip-path="url(#p8689955c12)" style="fill: none; stroke: #d62728; stroke-opacity: 0.4"/>
   </g>
   <g id="PathCollection_32">
    <path d="M 627.156377 813.429682 
C 627.995023 813.429682 628.799433 813.096485 629.392445 812.503473 
C 629.985457 811.91046 630.318654 811.10605 630.318654 810.267405 
C 630.318654 809.428759 629.985457 808.624349 629.392445 808.031337 
C 628.799433 807.438325 627.995023 807.105127 627.156377 807.105127 
C 626.317731 807.105127 625.513321 807.438325 624.920309 808.031337 
C 624.327297 808.624349 623.994099 809.428759 623.994099 810.267405 
C 623.994099 811.10605 624.327297 811.91046 624.920309 812.503473 
C 625.513321 813.096485 626.317731 813.429682 627.156377 813.429682 
L 627.156377 813.429682 
z
" clip-path="url(#p8689955c12)" style="fill: none; stroke: #000000; stroke-opacity: 0.4"/>
   </g>
   <g id="PathCollection_33">
    <path d="M 625.437084 845.48312 
C 626.27573 845.48312 627.08014 845.149922 627.673152 844.55691 
C 628.266164 843.963898 628.599361 843.159488 628.599361 842.320842 
C 628.599361 841.482196 628.266164 840.677786 627.673152 840.084774 
C 627.08014 839.491762 626.27573 839.158564 625.437084 839.158564 
C 624.598438 839.158564 623.794028 839.491762 623.201016 840.084774 
C 622.608004 840.677786 622.274806 841.482196 622.274806 842.320842 
C 622.274806 843.159488 622.608004 843.963898 623.201016 844.55691 
C 623.794028 845.149922 624.598438 845.48312 625.437084 845.48312 
L 625.437084 845.48312 
z
" clip-path="url(#p8689955c12)" style="fill: none; stroke: #d62728; stroke-opacity: 0.4"/>
   </g>
   <g id="PathCollection_34">
    <path d="M 617.434786 816.280422 
C 618.273432 816.280422 619.077842 815.947224 619.670854 815.354212 
C 620.263866 814.7612 620.597064 813.95679 620.597064 813.118144 
C 620.597064 812.279498 620.263866 811.475088 619.670854 810.882076 
C 619.077842 810.289064 618.273432 809.955867 617.434786 809.955867 
C 616.59614 809.955867 615.79173 810.289064 615.198718 810.882076 
C 614.605706 811.475088 614.272508 812.279498 614.272508 813.118144 
C 614.272508 813.95679 614.605706 814.7612 615.198718 815.354212 
C 615.79173 815.947224 616.59614 816.280422 617.434786 816.280422 
L 617.434786 816.280422 
z
" clip-path="url(#p8689955c12)" style="fill: none; stroke: #000000; stroke-opacity: 0.4"/>
   </g>
   <g id="PathCollection_35">
    <path d="M 611.196028 849.02284 
C 612.034674 849.02284 612.839084 848.689643 613.432096 848.096631 
C 614.025108 847.503619 614.358306 846.699209 614.358306 845.860563 
C 614.358306 845.021917 614.025108 844.217507 613.432096 843.624495 
C 612.839084 843.031483 612.034674 842.698285 611.196028 842.698285 
C 610.357382 842.698285 609.552972 843.031483 608.95996 843.624495 
C 608.366948 844.217507 608.03375 845.021917 608.03375 845.860563 
C 608.03375 846.699209 608.366948 847.503619 608.95996 848.096631 
C 609.552972 848.689643 610.357382 849.02284 611.196028 849.02284 
L 611.196028 849.02284 
z
" clip-path="url(#p8689955c12)" style="fill: none; stroke: #d62728; stroke-opacity: 0.4"/>
   </g>
   <g id="PathCollection_36">
    <path d="M 604.590656 819.478813 
C 605.429302 819.478813 606.233712 819.145615 606.826724 818.552603 
C 607.419736 817.959591 607.752933 817.155181 607.752933 816.316535 
C 607.752933 815.477889 607.419736 814.673479 606.826724 814.080467 
C 606.233712 813.487455 605.429302 813.154257 604.590656 813.154257 
C 603.75201 813.154257 602.9476 813.487455 602.354588 814.080467 
C 601.761576 814.673479 601.428378 815.477889 601.428378 816.316535 
C 601.428378 817.155181 601.761576 817.959591 602.354588 818.552603 
C 602.9476 819.145615 603.75201 819.478813 604.590656 819.478813 
L 604.590656 819.478813 
z
" clip-path="url(#p8689955c12)" style="fill: none; stroke: #000000; stroke-opacity: 0.4"/>
   </g>
  </g>
 </g>
 <defs>
  <clipPath id="p8689955c12">
   <rect x="0" y="0" width="1087.2" height="1087.2"/>
  </clipPath>
 </defs>
</svg>
