<?xml version="1.0" encoding="utf-8" standalone="no"?>
<!DOCTYPE svg PUBLIC "-//W3C//DTD SVG 1.1//EN"
  "http://www.w3.org/Graphics/SVG/1.1/DTD/svg11.dtd">
<svg xmlns:xlink="http://www.w3.org/1999/xlink" width="1440pt" height="1440pt" viewBox="0 0 1440 1440" xmlns="http://www.w3.org/2000/svg" version="1.1">
 <metadata>
  <rdf:RDF xmlns:dc="http://purl.org/dc/elements/1.1/" xmlns:cc="http://creativecommons.org/ns#" xmlns:rdf="http://www.w3.org/1999/02/22-rdf-syntax-ns#">
   <cc:Work>
    <dc:type rdf:resource="http://purl.org/dc/dcmitype/StillImage"/>
    <dc:date>2022-07-28T10:26:41.564001</dc:date>
    <dc:format>image/svg+xml</dc:format>
    <dc:creator>
     <cc:Agent>
      <dc:title>Matplotlib v3.5.1, https://matplotlib.org/</dc:title>
     </cc:Agent>
    </dc:creator>
   </cc:Work>
  </rdf:RDF>
 </metadata>
 <defs>
  <style type="text/css">*{stroke-linejoin: round; stroke-linecap: butt}</style>
 </defs>
 <g id="figure_1">
  <g id="patch_1">
   <path d="M 0 1440 
L 1440 1440 
L 1440 0 
L 0 0 
L 0 1440 
z
" style="fill: none"/>
  </g>
  <g id="axes_1">
   <g id="line2d_1">
    <path d="M 766.108052 630.314516 
L 759.4119 628.11173 
L 753.992323 626.496923 
M 856.125645 629.110701 
L 826.940568 635.819043 
L 818.652735 637.717541 
L 818.786901 637.70472 
M 765.4765 630.067723 
L 764.054515 629.646351 
L 762.291678 628.905953 
M 765.4765 630.067723 
L 756.962435 627.351354 
L 753.992323 626.496923 
M 744.117018 654.871303 
L 745.510519 650.955266 
L 747.321456 646.223524 
L 750.157965 637.144855 
L 753.761732 627.092415 
L 753.992323 626.496923 
M 744.117018 654.871303 
L 746.50188 655.86057 
L 748.207128 656.896231 
L 756.789245 663.038879 
L 763.645679 667.532897 
M 744.117018 654.871303 
L 755.961867 652.127796 
L 781.571067 646.230936 
M 744.117018 654.871303 
L 738.084338 673.715207 
L 736.13963 679.464429 
L 732.679325 690.646636 
L 730.434606 699.080865 
L 728.929426 703.352767 
L 725.144913 713.5 
L 725.144913 713.5 
M 753.992323 626.496923 
L 755.801455 626.948478 
M 725.144913 713.5 
L 727.054451 708.318137 
L 729.903891 700.585748 
L 730.995766 697.810397 
L 732.325507 695.175915 
L 735.070837 689.987653 
L 737.418543 684.881766 
L 739.540943 679.812058 
L 741.992486 673.960837 
L 747.651081 660.666745 
L 749.588396 656.155984 
M 746.757302 625.083299 
L 747.210158 630.291388 
L 747.676905 633.815598 
L 748.45427 638.532667 
L 748.468085 640.445953 
L 748.403521 643.760574 
L 748.626411 646.680104 
L 749.279897 653.571451 
L 749.411626 656.225461 
L 749.588396 656.155984 
M 783.246703 680.13898 
L 776.468142 675.777912 
L 767.363921 669.885695 
L 763.645679 667.532897 
M 783.246703 680.13898 
L 788.494478 683.471904 
L 802.852779 692.962667 
M 802.852779 692.962667 
L 818.296605 702.784486 
L 822.168252 704.819067 
L 822.334561 705.625253 
M 822.160227 703.85393 
L 822.334561 705.625253 
M 822.160227 703.85393 
L 826.421648 698.996957 
L 826.933274 698.460122 
M 818.786901 637.70472 
L 812.004888 639.277612 
L 788.967927 644.542162 
L 781.524815 646.252514 
L 781.571067 646.230936 
M 846.746758 676.915846 
L 847.799768 681.954592 
L 851.660634 699.403432 
M 846.746758 676.915846 
L 843.758385 680.207454 
L 841.70485 682.360178 
L 841.790684 682.337704 
M 831.734716 693.184138 
L 836.739594 687.956513 
L 836.834615 687.774692 
M 831.734716 693.184138 
L 829.478832 695.72509 
L 826.887779 698.426504 
L 826.933274 698.460122 
M 836.834615 687.774692 
L 841.790684 682.337704 
M 749.583047 656.046767 
L 749.588396 656.155984 
M 749.589682 656.11973 
L 749.588396 656.155984 
M 749.588396 656.155984 
L 749.621619 656.254233 
M 749.588396 656.155984 
L 749.608331 656.190023 
L 749.608331 656.190023 
" clip-path="url(#p45f1250baa)" style="fill: none; stroke: #1f77b4; stroke-opacity: 0.8; stroke-width: 1.5; stroke-linecap: square"/>
   </g>
   <g id="line2d_2">
    <path d="M 822.184865 605.429025 
L 814.940553 612.405687 
M 822.184865 605.429025 
L 828.83185 599.11132 
M 845.162263 672.322344 
L 841.93204 674.965403 
L 838.641785 677.340876 
L 835.290926 679.446134 
L 828.474097 683.143323 
L 825.053567 684.937893 
L 817.15177 682.537227 
M 800.391097 683.134147 
L 797.318731 666.555344 
M 800.391097 683.134147 
L 804.402554 682.284964 
L 808.596579 682.361407 
M 800.391097 683.134147 
L 798.878705 701.576098 
M 797.318731 666.555344 
L 793.544174 651.436321 
M 828.189592 687.487824 
L 822.430327 683.913569 
L 816.944543 681.981291 
M 828.189592 687.487824 
L 838.224044 690.898153 
L 840.245505 691.602891 
L 840.164071 693.351548 
M 767.208702 630.757898 
L 760.062443 628.7793 
L 755.144682 626.779914 
M 806.875152 620.009229 
L 800.036335 632.958832 
L 798.229952 628.258912 
M 806.875152 620.009229 
L 807.205758 619.839414 
L 808.38057 618.752088 
L 810.926815 615.979903 
L 814.940553 612.405687 
M 764.207874 629.588535 
L 760.145803 629.596526 
L 755.144682 626.779914 
M 784.35182 821.250073 
L 785.946109 808.281336 
L 787.840232 795.119629 
M 784.35182 821.250073 
L 784.179989 821.331188 
M 789.011577 637.665944 
L 782.998176 636.643522 
L 773.567325 634.757045 
L 767.152846 633.387976 
L 769.589108 635.967604 
M 789.011577 637.665944 
L 793.77145 633.97454 
L 798.229952 628.258912 
M 789.011577 637.665944 
L 793.544174 651.436321 
M 789.011577 637.665944 
L 799.791571 633.075166 
L 802.093892 638.233046 
M 851.606352 698.954663 
L 845.885211 696.24926 
L 840.164071 693.351548 
M 851.606352 698.954663 
L 836.799938 691.496308 
L 822.939985 684.326816 
L 817.15177 682.537227 
M 760.360455 628.267123 
L 763.570873 629.356168 
M 798.878705 701.576098 
L 796.866008 721.815825 
M 783.943037 821.443043 
L 784.179989 821.331188 
M 783.943037 821.443043 
L 776.424576 805.736414 
L 770.959519 794.600846 
M 815.223934 639.535607 
L 806.062673 635.037088 
L 801.433164 632.819546 
L 802.093892 638.233046 
M 815.223934 639.535607 
L 823.760345 640.209378 
L 828.034861 641.138323 
M 760.898518 646.156842 
L 758.361389 649.850455 
L 754.209206 656.372254 
L 752.797128 658.625551 
L 751.964422 656.887365 
M 760.898518 646.156842 
L 765.401571 632.376961 
L 769.589108 635.967604 
M 747.678173 625.229025 
L 755.144682 626.779914 
M 787.840232 795.119629 
L 789.514789 782.247581 
L 790.890416 769.671914 
M 796.866008 721.815825 
L 795.481426 733.012909 
L 794.294897 744.611597 
M 751.964422 656.887365 
L 746.366341 669.68977 
L 740.426533 682.840102 
L 727.926818 709.688008 
L 725.144913 713.5 
M 766.634676 632.529734 
L 769.589108 635.967604 
M 766.634676 632.529734 
L 763.570873 629.356168 
M 767.834972 631.017802 
L 760.270685 629.320077 
L 755.144682 626.779914 
M 756.406654 658.55568 
L 750.602232 668.051011 
L 744.632174 678.488832 
L 738.672703 689.463045 
L 726.985754 711.782353 
L 725.144913 713.5 
M 794.294897 744.611597 
L 790.890416 769.671914 
M 769.589108 635.967604 
L 760.251695 629.835016 
L 755.144682 626.779914 
M 808.596579 682.361407 
L 816.066624 681.772642 
L 816.944543 681.981291 
M 755.144682 626.779914 
L 753.332178 626.342086 
L 753.332178 626.342086 
" clip-path="url(#p45f1250baa)" style="fill: none; stroke: #d62728; stroke-opacity: 0.8; stroke-width: 1.5; stroke-linecap: square"/>
   </g>
  </g>
 </g>
 <defs>
  <clipPath id="p45f1250baa">
   <rect x="37.275" y="17.5375" width="1391.925" height="1391.925"/>
  </clipPath>
 </defs>
</svg>
